<?xml version="1.0" encoding="utf-8"?>
<!-- Generator: Adobe Illustrator 24.0.0, SVG Export Plug-In . SVG Version: 6.00 Build 0)  -->
<svg version="1.1" id="Layer_1" xmlns="http://www.w3.org/2000/svg" xmlns:xlink="http://www.w3.org/1999/xlink" x="0px" y="0px"
	 viewBox="0 0 394.4 95.5" style="enable-background:new 0 0 394.4 95.5;" xml:space="preserve">
<style type="text/css">
	.st0{fill:#FFFFFF;}
</style>
<title>Logo Pegasi</title>
<path class="st0" d="M19.5,5.2c5.4,0,13,0.5,19.4,4.8c7.4,4.9,11,13.4,11,21.5c0.2,7.4-3,14.6-8.6,19.4c-7,6-15.1,6.9-21.6,6.9h-6.1
	v36H0V5.2H19.5z M13.5,45.3h6.1c11.7,0,17.3-5.7,17.3-14c0-4.9-2-13.7-17.4-13.7h-6L13.5,45.3z"/>
<path class="st0" d="M112.7,17.9H77.3v22.5h34.3v12.8H77.3V81h35.3v12.8H63.8V5.2h48.9L112.7,17.9z"/>
<path class="st0" d="M176,47.7h36.5v0.7c0,15.1-4.5,27.5-13.1,35.9c-9.2,8.9-20.1,11.3-30.2,11.3c-12.9,0-22.1-3.7-30.1-12.1
	c-8.6-9-13.3-21-13.2-33.5c0-13.8,5.6-25.8,12.9-33.1c7.6-7.7,19.7-13.3,33.3-13.3c8.1-0.1,16,1.8,23.1,5.6
	c5.8,3.2,10.7,7.7,14.3,13.3L198.9,30c-2.9-4.1-6.6-7.5-10.9-10.1c-4.8-2.7-10.2-4.1-15.7-3.9c-11.6,0-19,4.8-23.4,9.2
	c-5.9,5.9-9.4,15.3-9.4,24.8c0,8.9,3.2,17.4,9.2,24c6.1,6.5,13.7,8.9,22.2,8.9c7.7,0,14.1-2.3,19.8-7.8c4.2-3.9,6.9-9.3,7.4-15H176
	V47.7z"/>
<polygon class="st0" points="275.7,31 247.2,31 261.8,0 "/>
<polygon class="st0" points="303.8,93.8 274.4,93.8 261.3,63.8 247.6,93.8 217.7,93.8 243.1,39.9 279.7,39.9 "/>
<path class="st0" d="M350.6,24.8c-2.1-5.6-7.6-9.1-13.6-8.8c-8.2,0-12.5,4.9-12.5,10.6c0,2.7,0.9,7.3,9.6,10.8L343,41
	c16.3,6.6,20.9,15.9,20.9,26c0,16.9-12,28.4-28.6,28.4c-10.2,0-16.3-3.9-20.9-8.9c-4.3-4.7-7-10.8-7.4-17.2l13.4-2.9
	c0,4.1,1.3,8,3.7,11.3c2.8,3.5,7.1,5.5,11.6,5.3c8.2,0,14.6-6,14.6-14.9s-6.9-12.8-12.8-15.1l-8.5-3.6C321.8,46.4,311,40.3,311,27
	c0-12,9.3-23.4,25.9-23.4c9.6,0,15,3.6,17.8,6c2.8,2.5,5.1,5.5,6.8,8.9L350.6,24.8z"/>
<path class="st0" d="M394.4,5.2v88.6h-13.6V5.2H394.4z"/>
</svg>
